<?xml version="1.0" encoding="utf-8"?>
<!-- Generator: Adobe Illustrator 23.0.5, SVG Export Plug-In . SVG Version: 6.00 Build 0)  -->
<svg version="1.1" id="Layer_1" xmlns="http://www.w3.org/2000/svg" xmlns:xlink="http://www.w3.org/1999/xlink" x="0px" y="0px"
	 viewBox="0 0 1200 950" style="enable-background:new 0 0 1200 950;" xml:space="preserve">
<style type="text/css">
	.st0{fill:#1AB71A;}
	.st1{fill:#2E9FE5;}
</style>
<g id="_x33_1">
	<g>
		<path class="st0" d="M1151.8,498.6c0,0-162.1,45.9-336.3,42.7L534.2,54.1L330.1,407.8C505,663.6,906.7,645.6,1151.8,498.6z
			 M656.3,521.8c-71.5-18-136.7-50.3-184.1-104.2l62-107.3L656.3,521.8z"/>
		<path class="st0" d="M752.4,596.3c-179.9,0-325.3-65.5-410.6-184.7L529.6,86.2l273.2,473.2l7.8,0.1c5.9,0.1,11.8,0.2,17.7,0.2
			c78.9,0,154.8-9.6,213.1-19.7C951,576.3,850.1,596.3,752.4,596.3C752.4,596.3,752.4,596.3,752.4,596.3z M450.8,423.8l6.5,7.4
			c45.2,51.4,109.5,87.9,191.1,108.4l31.5,7.9L529.6,287.3L450.8,423.8z"/>
		<path class="st0" d="M341.8,412c52,72.7,126.5,125.4,217.4,155.4c12.4-14,24.1-28.8,35-44.4c-56.2-21.4-102.1-52-136.8-91.4
			l-6.5-7.4l78.8-136.5l100.9,174.7c19.5-38,34.8-79.2,45.2-122.8l-146.1-253L341.8,412z"/>
		<path class="st1" d="M81.3,284.9c39.9,121.8,93.7,215,154.4,286.3L48.2,895.9h971.9l-119-206.1
			C522.4,747.5,273.5,567.2,81.3,284.9z M330.9,662.4c68.3,53,140.1,85.6,207.4,105.4H270L330.9,662.4z"/>
		<path class="st1" d="M67.5,882.1l180.4-312.5l-6.3-7.4c-44.9-52.8-83.4-115-114.9-185.8c73.6,93.6,150.4,166.1,233.2,220.2
			c121,79.1,251.8,117.5,399.8,117.5c41.8,0,85.4-3.2,129.7-9.6l102.4,177.4H67.5z M241.6,781.6h390.6
			c-98-20.4-190.1-46.8-297.5-130l-12.4-9.7L241.6,781.6z"/>
		<path class="st1" d="M282.8,708.6l39.4-68.3l12.4,9.7c17.4,13.4,34.3,25.4,51,36.1c25.7-9.4,50.4-21.6,73.8-36.1
			c-34-15.4-67.2-33.6-99.7-54.8C277.1,541,200.2,468.5,126.6,374.9c31.5,70.7,70,132.9,114.9,185.8l6.3,7.4l-76.8,133
			c26.4,5.7,53.7,8.8,81.5,8.8C262.7,709.8,272.8,709.4,282.8,708.6z"/>
		<g>
			<path class="st1" d="M632.2,781.6c-11.7-2.4-23.2-5-34.8-7.6H246.1l-4.4,7.6H632.2z"/>
			<polygon class="st1" points="250.4,572.9 247.7,569.8 70,877.7 74.4,877.7 			"/>
			<path class="st1" d="M359.8,599.8c121,79.1,251.8,117.5,399.8,117.5c41.8,0,85.4-3.2,129.7-9.5l98,169.8h4.4L889.4,700.1
				c-44.3,6.3-87.9,9.5-129.7,9.5c-148,0-278.8-38.4-399.8-117.5c-82.7-54.1-159.6-126.6-233.2-220.2c2.8,6.2,5.6,12.2,8.5,18.3
				C206.1,478.7,280.3,547.8,359.8,599.8z"/>
		</g>
		<g>
			<path class="st0" d="M529.6,91.8L802.9,565l7.8,0.1c5.9,0.1,11.8,0.2,17.7,0.2c64.5,0,126.9-6.4,179.4-14.3
				c11.4-3.9,22.6-8.1,33.7-12.6c-58.3,10.1-134.2,19.7-213.1,19.7c-5.9,0-11.8-0.1-17.7-0.2l-7.8-0.1L529.6,84.7L340.8,411
				c0.8,1.1,1.9,2.3,2.6,3.4L529.6,91.8z"/>
			<path class="st0" d="M455.7,434.5c45.2,51.4,109.5,87.9,191.1,108.5l31.5,7.9l-4.8-8.3l-26.7-6.7
				c-81.6-20.6-145.8-57-191.1-108.5l-4-4.6l-2.5,4.3L455.7,434.5z"/>
		</g>
	</g>
</g>
</svg>
